<?xml version="1.0" encoding="UTF-8"?>
<svg width="25px" height="25px" viewBox="0 0 25 25" version="1.1" xmlns="http://www.w3.org/2000/svg" xmlns:xlink="http://www.w3.org/1999/xlink">
    <title>email</title>
    <g id="email" stroke="none" stroke-width="1" fill="none" fill-rule="evenodd">
        <g id="Group-10" transform="translate(3.000000, 3.000000)">
            <polygon id="Fill-1" fill="#FFFFFF" points="0.360918097 19.422329 19.6406693 19.422329 19.6406693 7.44175307 0.360918097 7.44175307"></polygon>
            <path d="M0.000144309515,19.7831028 L20,19.7831028 L20,7.08097928 L0.000144309515,7.08097928 L0.000144309515,19.7831028 Z M0.721691885,19.0601121 L19.2770093,19.0601121 L19.2770093,7.80252686 L0.721691885,7.80252686 L0.721691885,19.0601121 Z" id="Fill-2" fill="#000000"></path>
            <polygon id="Fill-3" fill="#FFFFFF" points="0.623561415 7.10305864 9.98924894 13.7629428 19.3549365 7.10305864 9.98924894 0.443174521"></polygon>
            <path d="M9.98910463,0 L0,7.10291433 L9.98910463,14.2058287 L19.9782093,7.10291433 L9.98910463,0 Z M1.24539111,7.10291433 L9.98910463,0.886060422 L18.7342612,7.10291433 L9.98910463,13.3197682 L1.24539111,7.10291433 Z" id="Fill-4" fill="#000000"></path>
            <g id="Group-7" transform="translate(3.674697, 3.057630)">
                <polyline id="Fill-5" fill="#FFFFFF" points="-6.40862985e-16 6.21685391 -6.40862985e-16 0 12.6299688 0 12.6299688 6.21685391"></polyline>
                <polyline id="Stroke-6" stroke="#000000" stroke-width="0.48" points="-6.40862985e-16 6.21685391 -6.40862985e-16 0 12.6299688 0 12.6299688 6.21685391"></polyline>
            </g>
            <path d="M10.5946274,7.05500357 C10.5946274,6.88760453 10.5383466,6.74618121 10.422899,6.63361979 C10.3060083,6.52105837 10.1616988,6.46477766 9.99429977,6.46477766 C9.81102669,6.46477766 9.66094479,6.53693241 9.54405409,6.67691264 C9.42572028,6.81689287 9.36799648,6.99583667 9.36799648,7.21230094 C9.36799648,7.40134641 9.41561862,7.55720068 9.5094198,7.67842068 C9.60322099,7.79964067 9.72444098,7.86169376 9.87452288,7.86169376 C10.0650114,7.86169376 10.2324105,7.77943734 10.3781631,7.61925378 C10.5224726,7.45618402 10.5946274,7.26858165 10.5946274,7.05500357 L10.5946274,7.05500357 Z M11.150219,6.0044303 L10.9784907,7.4345376 C10.9712752,7.48648902 10.9669459,7.53699735 10.9640597,7.58461949 C10.9611735,7.63224163 10.9597304,7.67842068 10.9597304,7.71882734 C10.9597304,7.85592138 11.0160111,7.92374685 11.1271295,7.92374685 C11.2858699,7.92374685 11.4287364,7.81118543 11.5571718,7.58894878 C11.6841642,7.36959831 11.7476604,7.11849976 11.7476604,6.8385393 C11.7476604,6.3911798 11.5918061,6.02607673 11.2800976,5.74178698 C10.9698321,5.45461105 10.5729809,5.30885844 10.0909871,5.30885844 C9.58734694,5.30885844 9.16307697,5.48058676 8.81962032,5.8254865 C8.47616368,6.16894315 8.30443535,6.59321312 8.30443535,7.09829643 C8.30443535,7.37825689 8.36648844,7.65244496 8.48915153,7.92086066 C8.61470081,8.17195922 8.78931532,8.37976492 9.01443817,8.54283467 C9.31460196,8.76074204 9.69269289,8.87041727 10.1458248,8.87041727 C10.5700947,8.87041727 11.014568,8.76218513 11.4778016,8.54572086 L11.5196513,8.52551753 L11.6610747,8.91515322 L11.6278835,8.93247036 C11.1559914,9.1604794 10.6624528,9.27448391 10.148711,9.27448391 C9.58157456,9.27448391 9.10679626,9.13738987 8.72293295,8.86464489 C8.44297249,8.66405466 8.22217893,8.40862682 8.06488156,8.09980446 C7.90902728,7.77366496 7.83110014,7.44175307 7.83110014,7.10406881 C7.83110014,6.48931027 8.04756442,5.9741253 8.48049296,5.55707081 C8.9148646,5.14001631 9.4502529,4.93076751 10.0852148,4.93076751 C10.6725545,4.93076751 11.1632068,5.10971131 11.5571718,5.469042 C11.9496937,5.82404341 12.1473977,6.26995981 12.1473977,6.80534811 C12.1473977,7.21807332 12.0406087,7.57307473 11.8270306,7.86746614 C11.6105663,8.16762993 11.3580247,8.31771183 11.0679626,8.31771183 C10.8356242,8.31771183 10.6783269,8.2080366 10.5946274,7.98724304 C10.3723907,8.21669517 10.1241783,8.33069968 9.84854716,8.33069968 C9.54982647,8.33069968 9.3016141,8.22391064 9.10246697,8.00744637 C8.90620603,7.79386829 8.80807556,7.51968021 8.80807556,7.18921142 C8.80807556,6.83132382 8.91775079,6.53837551 9.13710125,6.30748028 C9.35645172,6.07081268 9.63208289,5.95392197 9.96399478,5.95392197 C10.2670448,5.95392197 10.513814,6.07081268 10.6999733,6.30748028 L10.7389369,6.0044303 L11.150219,6.0044303 Z" id="Fill-8" fill="#231F20"></path>
        </g>
    </g>
</svg>