<?xml version="1.0" encoding="UTF-8"?>
<svg width="25px" height="25px" viewBox="0 0 25 25" version="1.1" xmlns="http://www.w3.org/2000/svg" xmlns:xlink="http://www.w3.org/1999/xlink">
    <title>github</title>
    <g id="github" stroke="none" stroke-width="1" fill="none" fill-rule="evenodd">
        <g transform="translate(2.000000, 2.000000)">
            <path d="M13.9098589,21.2394899 C13.7925845,21.1283517 13.7263017,20.9714619 13.7273093,20.8073992 L13.7273093,17.7076179 C13.792133,16.9324804 13.517735,16.1679651 12.978856,15.6223105 C13.4714558,15.5730635 13.959677,15.4851368 14.4392527,15.3592987 C14.9430911,15.2323513 15.428123,15.0364798 15.8813944,14.7769156 C16.3211375,14.5287677 16.7113409,14.1973161 17.0314569,13.8000148 C17.3485594,13.3346955 17.5776951,12.8120933 17.7068903,12.2595175 C17.9128204,11.5400758 18.0113047,10.792603 17.9989697,10.0427042 C18.0212305,8.92084694 17.6148343,7.83479636 16.8671622,7.01806915 C17.2167782,6.04679374 17.1773824,4.97240448 16.7576325,4.0310072 C16.3666157,3.95697895 15.9628048,4.0163461 15.6075701,4.20008618 C15.147308,4.39967151 14.7070974,4.64506263 14.293213,4.93276175 L13.7455643,5.28970626 C11.953544,4.78090153 10.0610968,4.78090153 8.2690766,5.28970626 L7.66666295,4.80125588 C7.28554113,4.58281272 6.88888122,4.39440771 6.48009063,4.23765928 C6.10417304,4.03652371 5.67568358,3.96412609 5.25700838,4.0310072 C4.8471275,4.97584956 4.81434806,6.04859047 5.16573359,7.01806915 C4.40692083,7.83646173 3.99348804,8.93053304 4.01567118,10.0614908 C4.00405632,10.8051762 4.10254486,11.5463461 4.30775052,12.2595175 C4.46360922,12.8157933 4.71729092,13.3379314 5.05620383,13.8000148 C5.37406241,14.1996371 5.76473669,14.5314887 6.20626624,14.7769156 C6.62583844,15.0213547 7.07353339,15.2106967 7.53887824,15.3405122 C8.01845392,15.4663503 8.5066751,15.554277 8.99927495,15.6035239 C8.60029735,16.0026061 8.35408563,16.5360409 8.30558651,17.1064482 C8.10199078,17.2072485 7.88752734,17.2829201 7.66666295,17.3318868 C7.39353276,17.3602642 7.11831999,17.3602642 6.8451898,17.3318868 C6.51087965,17.3231948 6.18670264,17.2119891 5.9141869,17.0125154 C5.59741993,16.8066586 5.32925545,16.530685 5.12922367,16.2046936 C4.9569529,15.8977291 4.71988963,15.6345019 4.43553523,15.434445 C4.22808244,15.2717811 3.99276732,15.1506973 3.7418468,15.0775004 L3.44976745,15.0775004 C3.31171431,15.0439234 3.16795655,15.0439234 3.0299034,15.0775004 C2.9900322,15.1263918 2.9900322,15.1976881 3.0299034,15.2465794 C3.04276513,15.3251604 3.06739816,15.4012115 3.10292324,15.4720181 L3.28547282,15.6598836 L3.37674762,15.6598836 C3.62284082,15.7963632 3.83518862,15.9891851 3.99741622,16.2234802 C4.17781161,16.4545643 4.33100143,16.7068056 4.45379019,16.9749423 L4.59982986,17.3694599 C4.71419504,17.7272834 4.93044182,18.0414631 5.22049846,18.2712145 C5.49907587,18.4907959 5.82447878,18.6389154 6.16975633,18.7033052 C6.49526273,18.7625656 6.82497867,18.7939839 7.1555241,18.797238 C7.41658906,18.8227993 7.67942238,18.8227993 7.94048734,18.797238 L8.2690766,18.797238 C8.2690766,19.172969 8.2690766,19.6113219 8.2690766,20.1122967 C8.2690766,20.6132714 8.2690766,20.8762832 8.2690766,20.9013319 C8.27008416,21.0653946 8.2038014,21.2222844 8.08652701,21.3334226 C7.93305151,21.4457737 7.73830626,21.4803283 7.5571332,21.4273554 C9.78494189,22.1908815 12.193189,22.1908815 14.4209977,21.4273554 C14.2313045,21.451744 14.0416225,21.3820277 13.9098589,21.2394899 Z" id="Path" fill="#000000" fill-rule="nonzero"></path>
            <circle id="Oval" stroke="#000000" stroke-width="0.6" cx="11" cy="11" r="10.7"></circle>
        </g>
    </g>
</svg>