<svg id="Layer_1" data-name="Layer 1" xmlns="http://www.w3.org/2000/svg" viewBox="0 0 17.92 21.32"><defs><style>.cls-1{fill:#fff;stroke:#231f20;stroke-miterlimit:10;}.cls-2{fill:#231f20;}</style></defs><title>volunteer</title><path class="cls-1" d="M310.81,720.46a1.19,1.19,0,0,0-1.36-1,1.17,1.17,0,0,0-1.26,1V726h-0.45v-6.54a1.17,1.17,0,0,0-1.26-1,1.19,1.19,0,0,0-1.36,1v6.28h-0.45v-6.88a1.17,1.17,0,0,0-1.26-1,1.19,1.19,0,0,0-1.36,1v6.67h-0.45v-6a1.17,1.17,0,0,0-1.26-1,1.19,1.19,0,0,0-1.36,1l0,10.3-2.15-2.54a2,2,0,0,0-2.21-.38,1,1,0,0,0-.51,1.63l5.59,6.6a3.25,3.25,0,0,1,1,2.23c0,0.57.15,0.69,0.81,0.72a62.07,62.07,0,0,0,6.69.09c1.06-.08.91-0.45,1-1.28a13.88,13.88,0,0,1,.54-2.27,16.39,16.39,0,0,0,1.06-4.75v-1.64s0,0,0-.05v-7.59Z" transform="translate(-293.39 -717.3)"/><path class="cls-2" d="M308,730.64c0,2-2.91,4-3.13,4s-3.11-2-3.1-4.07a1.77,1.77,0,0,1,1.69-1.84,1.86,1.86,0,0,1,1.43,1.07,1.86,1.86,0,0,1,1.44-1.06A1.77,1.77,0,0,1,308,730.64Z" transform="translate(-293.39 -717.3)"/></svg>